<?xml version="1.0" encoding="UTF-8"?>
<svg id="Calque_1" xmlns="http://www.w3.org/2000/svg" version="1.1" viewBox="0 0 149 149">
  <!-- Generator: Adobe Illustrator 29.7.1, SVG Export Plug-In . SVG Version: 2.1.1 Build 8)  -->
  <defs>
    <style>
      .st0 {
        fill: #505151;
      }

      .st1 {
        stroke-width: 4.56px;
      }

      .st1, .st2, .st3 {
        stroke: #fff;
        stroke-linecap: round;
        stroke-linejoin: round;
      }

      .st1, .st3 {
        fill: #fff;
      }

      .st2 {
        fill: none;
        stroke-width: 7.92px;
      }

      .st3 {
        stroke-width: 4.9px;
      }
    </style>
  </defs>
  <circle class="st0" cx="74.5" cy="74.5" r="71.6"/>
  <g>
    <g>
      <path class="st3" d="M102,50.9c0,9.2-7.5,16.8-16.8,16.8s-16.8-7.5-16.8-16.8,7.5-16.8,16.8-16.8,16.8,7.5,16.8,16.8Z"/>
      <path class="st1" d="M56.8,143.8v-39.1c0-12,12.9-21.7,28.8-21.7s28.8,9.7,28.8,21.8v29c.7-.5-29.5,18.6-57.6,10"/>
    </g>
    <path class="st2" d="M25.7,71.8c1-4,3.8-7.3,7.5-8.1,3.4-.8,7.3.6,9.6,3.8,3,4,3.2,10,3.2,15.4v43.1"/>
  </g>
</svg>